<?xml version="1.0" encoding="utf-8"?>
<!-- Generator: Adobe Illustrator 24.0.0, SVG Export Plug-In . SVG Version: 6.00 Build 0)  -->
<svg version="1.1" id="Layer_1" xmlns="http://www.w3.org/2000/svg" xmlns:xlink="http://www.w3.org/1999/xlink" x="0px" y="0px"
	 viewBox="0 0 1080 1920" style="enable-background:new 0 0 1080 1920;" xml:space="preserve">
<style type="text/css">
	.st0{fill:#E5384A;}
	.st1{fill:#EECD81;}
	.st2{opacity:0.3;}
	.st3{fill:none;}
	.st4{fill:#ED1C24;}
	.st5{fill:#E6E6E6;}
	.st6{fill:#FFFFFF;}
</style>
<g>
	<g>
		<path class="st0" d="M1011.59,1900.18H69.89c-27.34,0-49.5-22.16-49.5-49.5v-599.76c0-27.34,22.16-49.5,49.5-49.5h941.7
			c27.34,0,49.5,22.16,49.5,49.5v599.76C1061.09,1878.02,1038.93,1900.18,1011.59,1900.18z"/>
		<path d="M978.64,1921h-875.8c-56.94,0-103.27-46.33-103.27-103.27v-533.86c0-56.94,46.33-103.27,103.27-103.27h875.8
			c56.94,0,103.27,46.33,103.27,103.27v533.86C1081.91,1874.67,1035.59,1921,978.64,1921z M102.84,1222.24
			c-33.98,0-61.63,27.65-61.63,61.63v533.86c0,33.98,27.65,61.63,61.63,61.63h875.8c33.98,0,61.63-27.65,61.63-61.63v-533.86
			c0-33.98-27.65-61.63-61.63-61.63H102.84z"/>
	</g>
	<g>
		<path class="st1" d="M311.83,1497.28h472.69c33.69,0,61-27.31,61-61v-582.7c0-33.69-27.31-61-61-61H311.83
			c-33.69,0-61,27.31-61,61v582.7C250.83,1469.97,278.14,1497.28,311.83,1497.28z"/>
		<path d="M743.91,1511.44H352.44c-63.83,0-115.76-51.93-115.76-115.76V894.18c0-63.83,51.93-115.76,115.76-115.76h391.48
			c63.83,0,115.76,51.93,115.76,115.76v501.49C859.68,1459.51,807.74,1511.44,743.91,1511.44z M352.44,806.73
			c-48.22,0-87.45,39.23-87.45,87.45v501.49c0,48.22,39.23,87.45,87.45,87.45h391.48c48.22,0,87.45-39.23,87.45-87.45V894.18
			c0-48.22-39.23-87.45-87.45-87.45H352.44z"/>
	</g>
	<g>
		<g>
			<g>
				<polygon class="st1" points="191.92,273.63 194.25,1078.41 272.99,1208.79 331.9,1272.17 695.85,1272.17 789.17,1262.84 
					877.83,1141.52 896.49,1094.86 896.49,530.5 896.49,329.62 				"/>
			</g>
		</g>
		<g>
			<g>
				<polygon class="st1" points="210.58,516.27 138.26,572.26 112.59,628.25 112.59,772.9 135.92,833.56 193.62,861.51 
					194.25,555.2 				"/>
			</g>
		</g>
		<g>
			<g>
				<polygon class="st1" points="551.2,390.28 541.87,1272.17 770.51,1262.84 887.16,1113.52 896.49,856.89 957.15,833.56 
					980.48,763.57 980.48,628.25 966.48,576.92 891.82,488.27 873.16,352.95 				"/>
			</g>
		</g>
		<g>
			<g>
				<ellipse class="st1" cx="546.54" cy="824.23" rx="23.33" ry="32.66"/>
			</g>
		</g>
		<g class="st2">
			<g>
				<g>
					<path d="M196.58,805.56c0,0,312.63,242.63,699.91,0v293.96L784.5,1248.84l-32.66,14H341.23l-41.99-18.66l-107.32-144.65
						L196.58,805.56z"/>
				</g>
			</g>
		</g>
		<g>
			<g>
				<circle cx="749.51" cy="821.89" r="11.67"/>
			</g>
		</g>
		<g>
			<g>
				<g>
					<path class="st3" d="M669.41,899.92v362.91h50.94V886.81C703.09,892.02,686.11,896.36,669.41,899.92z"/>
				</g>
			</g>
			<g>
				<g>
					<path class="st3" d="M609.14,909.71v353.12h50.94V901.82C642.77,905.24,625.77,907.87,609.14,909.71z"/>
				</g>
			</g>
			<g>
				<g>
					<path class="st3" d="M307.79,866.24v381.73l33.44,14.86h17.5V884.73C340.38,878.94,323.36,872.66,307.79,866.24z"/>
				</g>
			</g>
			<g>
				<g>
					<path class="st3" d="M488.6,910.91v351.92h50.94V913.35C522.05,913.25,505.05,912.41,488.6,910.91z"/>
				</g>
			</g>
			<g>
				<g>
					<path class="st3" d="M428.33,902.37v360.47h50.94V909.99C461.62,908.11,444.63,905.52,428.33,902.37z"/>
				</g>
			</g>
			<g>
				<g>
					<path class="st3" d="M729.68,883.87v378.96h22.16l28.77-12.33V865.35C763.41,872.39,746.43,878.54,729.68,883.87z"/>
				</g>
			</g>
			<g>
				<g>
					<path class="st3" d="M548.87,913.36v349.48h50.94v-352.2C582.43,912.3,565.43,913.19,548.87,913.36z"/>
				</g>
			</g>
			<g>
				<g>
					<path class="st3" d="M368.06,887.6v375.24H419V900.48C401.12,896.75,384.1,892.39,368.06,887.6z"/>
				</g>
			</g>
			<g>
				<g>
					<path class="st3" d="M789.95,861.51v380.07l50.94-67.92V837.4C823.72,846.33,806.73,854.36,789.95,861.51z"/>
				</g>
			</g>
			<g>
				<g>
					<path class="st3" d="M247.52,837.53v336.94l50.94,68.65V862.31C278.85,853.86,261.8,845.33,247.52,837.53z"/>
				</g>
			</g>
			<g>
				<g>
					<line x1="247.52" y1="1174.47" x2="238.19" y2="1161.89"/>
				</g>
			</g>
			<g>
				<g>
					<path d="M238.19,832.32c2.96,1.69,6.08,3.43,9.33,5.2"/>
				</g>
			</g>
			<g>
				<g>
					<path d="M238.19,832.32v329.57l9.33,12.58V837.53C244.27,835.75,241.14,834.01,238.19,832.32z"/>
				</g>
			</g>
			<g>
				<g>
					<polyline points="307.79,1247.97 299.23,1244.17 298.46,1243.12 					"/>
				</g>
			</g>
			<g>
				<g>
					<path d="M298.46,862.31c3.05,1.31,6.16,2.62,9.33,3.93"/>
				</g>
			</g>
			<g>
				<g>
					<path d="M298.46,862.31v380.81l0.78,1.05l8.55,3.8V866.24C304.62,864.94,301.5,863.62,298.46,862.31z"/>
				</g>
			</g>
			<g>
				<g>
					<path d="M358.73,884.73c3.08,0.97,6.18,1.93,9.33,2.87"/>
				</g>
			</g>
			<g>
				<g>
					<line x1="368.06" y1="1262.84" x2="358.73" y2="1262.84"/>
				</g>
			</g>
			<g>
				<g>
					<path d="M358.73,884.73v378.11h9.33V887.6C364.91,886.66,361.8,885.7,358.73,884.73z"/>
				</g>
			</g>
			<g>
				<g>
					<path d="M419,900.48v362.35h9.33V902.37C425.19,901.76,422.08,901.13,419,900.48z"/>
				</g>
			</g>
			<g>
				<g>
					<line x1="428.33" y1="1262.84" x2="419" y2="1262.84"/>
				</g>
			</g>
			<g>
				<g>
					<path d="M419,900.48c3.09,0.65,6.19,1.28,9.33,1.88"/>
				</g>
			</g>
			<g>
				<g>
					<path d="M479.26,909.99v352.84h9.33V910.91C485.47,910.63,482.35,910.32,479.26,909.99z"/>
				</g>
			</g>
			<g>
				<g>
					<line x1="488.6" y1="1262.84" x2="479.26" y2="1262.84"/>
				</g>
			</g>
			<g>
				<g>
					<path d="M479.26,909.99c3.09,0.33,6.2,0.63,9.33,0.92"/>
				</g>
			</g>
			<g>
				<g>
					<line x1="548.87" y1="1262.84" x2="539.54" y2="1262.84"/>
				</g>
			</g>
			<g>
				<g>
					<path d="M539.54,913.35c3.1,0.02,6.2,0.04,9.33,0.01"/>
				</g>
			</g>
			<g>
				<g>
					<path d="M539.54,913.35v349.49h9.33V913.36C545.74,913.39,542.64,913.36,539.54,913.35z"/>
				</g>
			</g>
			<g>
				<g>
					<path d="M599.81,910.64v352.2h9.33V909.71C606.01,910.06,602.91,910.34,599.81,910.64z"/>
				</g>
			</g>
			<g>
				<g>
					<path d="M599.81,910.64c3.1-0.3,6.2-0.58,9.33-0.93"/>
				</g>
			</g>
			<g>
				<g>
					<line x1="609.14" y1="1262.84" x2="599.81" y2="1262.84"/>
				</g>
			</g>
			<g>
				<g>
					<path d="M660.07,901.82c3.1-0.61,6.21-1.23,9.33-1.9"/>
				</g>
			</g>
			<g>
				<g>
					<line x1="669.41" y1="1262.84" x2="660.07" y2="1262.84"/>
				</g>
			</g>
			<g>
				<g>
					<path d="M660.07,901.82v361.01h9.33V899.92C666.28,900.59,663.18,901.21,660.07,901.82z"/>
				</g>
			</g>
			<g>
				<g>
					<line x1="729.68" y1="1262.84" x2="720.35" y2="1262.84"/>
				</g>
			</g>
			<g>
				<g>
					<path d="M720.35,886.81c3.1-0.93,6.22-1.95,9.33-2.94"/>
				</g>
			</g>
			<g>
				<g>
					<path d="M720.35,886.81v376.02h9.33V883.87C726.56,884.86,723.44,885.88,720.35,886.81z"/>
				</g>
			</g>
			<g>
				<g>
					<polyline points="789.95,1241.58 784.5,1248.84 780.62,1250.5 					"/>
				</g>
			</g>
			<g>
				<g>
					<path d="M780.62,865.35c3.11-1.27,6.21-2.5,9.33-3.83"/>
				</g>
			</g>
			<g>
				<g>
					<path d="M780.62,865.35v385.16l3.89-1.67l5.44-7.26V861.51C786.82,862.84,783.72,864.07,780.62,865.35z"/>
				</g>
			</g>
			<g>
				<g>
					<line x1="850.22" y1="1161.22" x2="840.88" y2="1173.66"/>
				</g>
			</g>
			<g>
				<g>
					<path d="M840.88,837.4v336.26l9.33-12.44V832.41C847.1,834.09,843.99,835.79,840.88,837.4z"/>
				</g>
			</g>
			<g>
				<g>
					<path d="M840.88,837.4c3.1-1.61,6.22-3.31,9.33-4.99"/>
				</g>
			</g>
		</g>
		<g>
			<g>
				<g>
					<path class="st4" d="M551.2,1097.19c103.08,0,186.64-50.14,186.64-111.99H364.56C364.56,1047.05,448.12,1097.19,551.2,1097.19z
						"/>
				</g>
				<g>
					<path d="M551.2,1111.19c-112.51,0-200.64-55.34-200.64-125.98v-14h401.28v14C751.84,1055.85,663.71,1111.19,551.2,1111.19z
						 M380.4,999.2c12.38,46.77,85.57,83.99,170.8,83.99s158.42-37.22,170.8-83.99H380.4z"/>
				</g>
			</g>
		</g>
		<g>
			<g>
				<rect x="373.89" y="992.2" class="st5" width="354.62" height="37.33"/>
			</g>
		</g>
		<g>
			<g>
				<g>
					<path class="st3" d="M966.48,763.57V637.58c0-36.48-23.43-67.52-55.99-79.09v284.16C943.05,831.09,966.48,800.05,966.48,763.57
						z"/>
				</g>
			</g>
			<g>
				<g>
					<path class="st3" d="M126.59,637.58v125.98c0,34.73,21.19,64.61,51.33,77.38V560.21C147.78,572.97,126.59,602.85,126.59,637.58
						z"/>
				</g>
			</g>
			<g>
				<g>
					<path d="M910.49,529.17v29.33c32.57,11.57,55.99,42.6,55.99,79.09v125.98c0,36.48-23.43,67.52-55.99,79.09v29.33
						c48.16-12.51,83.99-56.48,83.99-108.42V637.58C994.48,585.65,958.65,541.68,910.49,529.17z"/>
				</g>
			</g>
			<g>
				<g>
					<path d="M126.59,763.57V637.58c0-34.73,21.19-64.61,51.33-77.38V530.5c-45.79,14.07-79.32,56.84-79.32,107.08v125.98
						c0,50.24,33.53,93.02,79.32,107.08v-29.71C147.78,828.18,126.59,798.3,126.59,763.57z"/>
				</g>
			</g>
			<g>
				<g>
					<path d="M177.92,560.21v280.74c10.05,4.26,21.08,6.61,32.66,6.61V553.59C199,553.59,187.96,555.95,177.92,560.21z"/>
				</g>
			</g>
			<g>
				<g>
					<path d="M877.83,875.55v208.59c0,12.25-3.82,23.96-11.04,33.85l-81.68,111.93c-10.77,14.76-28.11,23.58-46.39,23.58H353.37
						c-17.88,0-35-8.51-45.79-22.77l-85.36-112.8c-7.5-9.91-11.63-22.22-11.63-34.65V875.55c-11.35,0-22.32-1.72-32.66-4.9v212.62
						c0,19.63,6.41,38.71,18.25,54.36l85.36,112.8c17.03,22.5,43.62,35.73,71.84,35.73h385.35c28.77,0,55.81-13.74,72.77-36.98
						l81.68-111.93c11.25-15.42,17.32-34.02,17.32-53.1V871.98c-8.96,2.33-18.34,3.57-28,3.57H877.83z"/>
				</g>
			</g>
			<g>
				<g>
					<path d="M877.83,553.59v293.96h4.67c9.83,0,19.22-1.78,28-4.9V558.49c-8.77-3.12-18.17-4.9-28-4.9H877.83z"/>
				</g>
			</g>
			<g>
				<g>
					<path d="M882.49,847.56h-4.67v28h4.67c9.66,0,19.04-1.24,28-3.57v-29.33C901.72,845.77,892.32,847.56,882.49,847.56z"/>
				</g>
			</g>
			<g>
				<g>
					<path d="M210.58,847.56c-11.58,0-22.62-2.35-32.66-6.61v29.71c10.35,3.18,21.31,4.9,32.66,4.9V847.56z"/>
				</g>
			</g>
			<g>
				<g>
					<path d="M210.58,553.59v-28c-11.35,0-22.32,1.72-32.66,4.9v29.71C187.96,555.95,199,553.59,210.58,553.59z"/>
				</g>
			</g>
			<g>
				<g>
					<path d="M877.83,525.6v28h4.67c9.83,0,19.22,1.78,28,4.9v-29.33c-8.96-2.33-18.34-3.57-28-3.57H877.83z"/>
				</g>
			</g>
		</g>
		<g>
			<g>
				<path d="M168.07,572.26h-14c-30.64,0-55.47-24.84-55.47-55.47V310.44c0-30.64,24.84-55.47,55.47-55.47h14
					c30.64,0,55.47,24.84,55.47,55.47v206.34C223.54,547.42,198.7,572.26,168.07,572.26z"/>
			</g>
		</g>
		<g>
			<g>
				<path d="M933.56,572.26h-27.48c-25.91,0-46.92-21.01-46.92-46.92V278.56c0-25.91,21.01-46.92,46.92-46.92h27.48
					c25.91,0,46.92,21.01,46.92,46.92v246.78C980.48,551.25,959.47,572.26,933.56,572.26z"/>
			</g>
		</g>
		<g>
			<g>
				<g>
					<path d="M583.86,460.27c190.85,0,360.82-89.41,470.31-228.64C944.69,92.41,774.72,3,583.86,3
						C408.69,3,251.1,78.33,141.74,198.36c-17.2,18.88-17.2,47.68,0,66.56C251.1,384.95,408.69,460.27,583.86,460.27z"/>
				</g>
			</g>
		</g>
		<g>
			<g>
				<path d="M546.04,791.56c39.54,0,64.78,19.34,64.78,32.66s-25.23,32.66-64.78,32.66s-64.78-19.34-64.78-32.66
					S506.5,791.56,546.04,791.56 M546.04,763.57c-51.24,0-92.77,27.16-92.77,60.66c0,33.5,41.54,60.66,92.77,60.66
					s92.77-27.16,92.77-60.66C638.81,790.73,597.28,763.57,546.04,763.57L546.04,763.57z"/>
			</g>
		</g>
		<g>
			<g>
				<circle cx="361.82" cy="656.25" r="60.66"/>
			</g>
		</g>
		<g>
			<g>
				<circle cx="726.58" cy="656.25" r="60.66"/>
			</g>
		</g>
		<g>
			<g>
				<path d="M808.67,577.29l30.09-30.09c-60.25-60.25-157.93-60.25-218.18,0l30.09,30.09C694.24,533.74,765.12,533.74,808.67,577.29
					z"/>
			</g>
		</g>
		<g>
			<g>
				<path d="M439.01,571.34l28.81-28.81c-57.67-57.67-151.18-57.67-208.85,0l28.81,28.81C329.47,529.65,397.31,529.65,439.01,571.34
					z"/>
			</g>
		</g>
		<g>
			<g>
				<g>
					<path d="M551.2,1111.19c-112.51,0-200.64-55.34-200.64-125.98v-14h401.28v14C751.84,1055.85,663.71,1111.19,551.2,1111.19z
						 M380.4,999.2c12.38,46.77,85.57,83.99,170.8,83.99s158.42-37.22,170.8-83.99H380.4z"/>
				</g>
			</g>
		</g>
		<g>
			<g>
				<circle class="st6" cx="352.89" cy="644.58" r="16.33"/>
			</g>
		</g>
		<g>
			<g>
				<circle class="st6" cx="712.18" cy="644.58" r="16.33"/>
			</g>
		</g>
	</g>
</g>
</svg>
